/* XPM */
static char *CodeCPU[] = {
/* width height ncolors chars_per_pixel */
"45 37 3 1",
/* colors */
"A c #FFFFFFFFFFFF",
"B c #ADADADADADAD",
"C c #000000000000",
/* pixels */
"CCCCCCCCCCCCCCCCCCCCCCCCCCCCCCCCCCCCCCCCCCCCC",
"CAAAAAAAAAAAAAAAAAAAAAACBBBBBBBBBBBBBBBBBBBBC",
"CAAAAAAAAAAAAAAAAAAAAAACBBBBBBBBBBBBBBBBBBBBC",
"CAAAAAAAAAAAAAAAAAAAAAACBBBBBCBBCBBCBBCBBBBBC",
"CAAAAAAAAAAAAAAAAAAAAAACBBBBBBBBBBBBBBBBBBBBC",
"CAAAAAAAAAAAAAAAAAAAAAACBBBBBBBBBBBBBBBBBBBBC",
"CAAAAAAAAAAAAAAAAAAAAAACBBBBBCCCCBBCCCCBBBBBC",
"CAAAAAAAAAAAAAAAAAAAAAACBBBBBBBBBBBBBBBBBBBBC",
"CAAAAAAAAAAAAAAAAAAAAAACBBBBBBBBBBBBBBBBBBBBC",
"CAAAAAAAAAAAAAAAAAAAAAACBBBBBCCCCBBCCCCBBBBBC",
"CAAAAAAAAAAAAAAAAAAAAAACBBBBBBBBBBBBBBBBBBBBC",
"CAAAAAAAAAAAAAAAAAAAAAACBBBBBBBBBBBBBBBBBBBBC",
"CCCCCCCCCCCCCCCCCCCCCCCCBBBBBCCCCBBCCCCBBBBBC",
"CAAAAAAAAAAAAAAAAAAAAAACBBBBBBBBBBBBBBBBBBBBC",
"CAAAAAAAAAAAAAAAAAAAAAACBBBBBBBBBBBBBBBBBBBBC",
"CAAAAAAAAAAAAAAAAAAAAAACBBBBBCCCCBBCCCCBBBBBC",
"CAAAAAAAAAAAAAAAAAAAAAACBBBBBBBBBBBBBBBBBBBBC",
"CAAAAAAAAAAAAAAAAAAAAAACBBBBBBBBBBBBBBBBBBBBC",
"CAAAAAAAAAAAAAAAAAAAAAACCCCCCCCCCCCCCCCCCCCCC",
"CAAAAAAAAAAAAAAAAAAAAAACAAAAAAAAAAAAAAAAAAAAC",
"CAAAAAAAAAAAAAAAAAAAAAACAAAAAAAAAAAAAAAAAAAAC",
"CAAAAAAAAAAAAAAAAAAAAAACAAAAAAAAAAAAAAAAAAAAC",
"CAAAAAAAAAAAAAAAAAAAAAACAAAAAAAAAAAAAAAAAAAAC",
"CAAAAAAAAAAAAAAAAAAAAAACAAAAAAAAAAAAAAAAAAAAC",
"CCCCCCCCCCCCCCCCCCCCCCCCAAAAAAAAAAAAAAAAAAAAC",
"CAAAAAAAAAAAAAAAAAAAAAACAAAAAAAAAAAAAAAAAAAAC",
"CAAAAAAAAAAAAAAAAAAAAAACAAAAAAAAAAAAAAAAAAAAC",
"CAAAAAAAAAAAAAAAAAAAAAACAAAAAAAAAAAAAAAAAAAAC",
"CAAAAAAAAAAAAAAAAAAAAAACAAAAAAAAAAAAAAAAAAAAC",
"CAAAAAAAAAAAAAAAAAAAAAACAAAAAAAAAAAAAAAAAAAAC",
"CAAAAAAAAAAAAAAAAAAAAAACAAAAAAAAAAAAAAAAAAAAC",
"CAAAAAAAAAAAAAAAAAAAAAACAAAAAAAAAAAAAAAAAAAAC",
"CAAAAAAAAAAAAAAAAAAAAAACAAAAAAAAAAAAAAAAAAAAC",
"CAAAAAAAAAAAAAAAAAAAAAACAAAAAAAAAAAAAAAAAAAAC",
"CAAAAAAAAAAAAAAAAAAAAAACAAAAAAAAAAAAAAAAAAAAC",
"CAAAAAAAAAAAAAAAAAAAAAACAAAAAAAAAAAAAAAAAAAAC",
"CCCCCCCCCCCCCCCCCCCCCCCCCCCCCCCCCCCCCCCCCCCCC"};
