/* XPM */
static char *CodeCPUMemory[] = {
/* width height ncolors chars_per_pixel */
"45 37 3 1",
/* colors */
"A c #FFFFFFFFFFFF",
"B c #ADADADADADAD",
"C c #000000000000",
/* pixels */
"CCCCCCCCCCCCCCCCCCCCCCCCCCCCCCCCCCCCCCCCCCCCC",
"CAAAAAAAAAAAAAACBBBBBBBBBBBBBBCAAAAAAAAAAAAAC",
"CAAAAAAAAAAAAAACBBBBBBBBBBBBBBCAAAAAAAAAAAAAC",
"CAAAAAAAAAAAAAACBBCBBCBBCBBCBBCAAAAAAAAAAAAAC",
"CAAAAAAAAAAAAAACBBBBBBBBBBBBBBCAAAAAAAAAAAAAC",
"CAAAAAAAAAAAAAACBBBBBBBBBBBBBBCAAAAAAAAAAAAAC",
"CAAAAAAAAAAAAAACBBCCCCBBCCCCBBCAAAAAAAAAAAAAC",
"CAAAAAAAAAAAAAACBBBBBBBBBBBBBBCAAAAAAAAAAAAAC",
"CAAAAAAAAAAAAAACBBBBBBBBBBBBBBCAAAAAAAAAAAAAC",
"CAAAAAAAAAAAAAACBBCCCCBBCCCCBBCAAAAAAAAAAAAAC",
"CAAAAAAAAAAAAAACBBBBBBBBBBBBBBCAAAAAAAAAAAAAC",
"CAAAAAAAAAAAAAACBBBBBBBBBBBBBBCAAAAAAAAAAAAAC",
"CCCCCCCCCCCCCCCCBBCCCCBBCCCCBBCAAAAAAAAAAAAAC",
"CAAAAAAAAAAAAAACBBBBBBBBBBBBBBCAAAAAAAAAAAAAC",
"CAAAAAAAAAAAAAACBBBBBBBBBBBBBBCAAAAAAAAAAAAAC",
"CAAAAAAAAAAAAAACBBCCCCBBCCCCBBCAAAAAAAAAAAAAC",
"CAAAAAAAAAAAAAACBBBBBBBBBBBBBBCAAAAAAAAAAAAAC",
"CAAAAAAAAAAAAAACBBBBBBBBBBBBBBCAAAAAAAAAAAAAC",
"CAAAAAAAAAAAAAACCCCCCCCCCCCCCCCAAAAAAAAAAAAAC",
"CAAAAAAAAAAAAAACAAAAAAAAAAAAAACAAAAAAAAAAAAAC",
"CAAAAAAAAAAAAAACAAAAAAAAAAAAAACAAAAAAAAAAAAAC",
"CAAAAAAAAAAAAAACAAAAAAAAAAAAAACAAAAAAAAAAAAAC",
"CAAAAAAAAAAAAAACAAAAAAAAAAAAAACAAAAAAAAAAAAAC",
"CAAAAAAAAAAAAAACAAAAAAAAAAAAAACAAAAAAAAAAAAAC",
"CCCCCCCCCCCCCCCCAAAAAAAAAAAAAACAAAAAAAAAAAAAC",
"CAAAAAAAAAAAAAACAAAAAAAAAAAAAACAAAAAAAAAAAAAC",
"CAAAAAAAAAAAAAACAAAAAAAAAAAAAACAAAAAAAAAAAAAC",
"CAAAAAAAAAAAAAACAAAAAAAAAAAAAACAAAAAAAAAAAAAC",
"CAAAAAAAAAAAAAACAAAAAAAAAAAAAACAAAAAAAAAAAAAC",
"CAAAAAAAAAAAAAACAAAAAAAAAAAAAACAAAAAAAAAAAAAC",
"CAAAAAAAAAAAAAACAAAAAAAAAAAAAACAAAAAAAAAAAAAC",
"CAAAAAAAAAAAAAACAAAAAAAAAAAAAACAAAAAAAAAAAAAC",
"CAAAAAAAAAAAAAACAAAAAAAAAAAAAACAAAAAAAAAAAAAC",
"CAAAAAAAAAAAAAACAAAAAAAAAAAAAACAAAAAAAAAAAAAC",
"CAAAAAAAAAAAAAACAAAAAAAAAAAAAACAAAAAAAAAAAAAC",
"CAAAAAAAAAAAAAACAAAAAAAAAAAAAACAAAAAAAAAAAAAC",
"CCCCCCCCCCCCCCCCCCCCCCCCCCCCCCCCCCCCCCCCCCCCC"};
